<?xml version="1.0" encoding="iso-8859-1"?>
<!-- Generator: Adobe Illustrator 18.0.0, SVG Export Plug-In . SVG Version: 6.00 Build 0)  -->
<!DOCTYPE svg PUBLIC "-//W3C//DTD SVG 1.1//EN" "http://www.w3.org/Graphics/SVG/1.1/DTD/svg11.dtd">
<svg version="1.1" id="Capa_1" xmlns="http://www.w3.org/2000/svg" xmlns:xlink="http://www.w3.org/1999/xlink" x="0px" y="0px"
	 viewBox="0 0 242.793 242.793" style="enable-background:new 0 0 242.793 242.793;" xml:space="preserve">
<g>
	<path style="fill:#BBBCBB;" d="M204.471,139.431H189.33v-36.068h15.141c22.348,0,38.322,18.034,38.322,18.034l0,0
		C242.793,121.396,228.581,139.431,204.471,139.431z"/>
	<path style="fill:#51444C;" d="M196.153,124.101H26.06c-0.822,0-1.489-0.666-1.489-1.489v-1.229c0-0.822,0.667-1.489,1.489-1.489
		h170.094c0.822,0,1.489,0.666,1.489,1.489v1.229C197.642,123.434,196.976,124.101,196.153,124.101z"/>
	<path style="fill:none;stroke:#51444C;stroke-width:2;stroke-miterlimit:10;" d="M17.149,131.884H3.596v-20.975h13.553
		c4.099,0,7.422,3.323,7.422,7.422v6.131C24.571,128.561,21.248,131.884,17.149,131.884z"/>
	<rect x="122.225" y="116.92" style="fill:#F16C21;" width="44.046" height="10.218"/>
	<rect x="0" y="110.909" style="fill:#F16C21;" width="5.783" height="20.975"/>
</g>
<g>
</g>
<g>
</g>
<g>
</g>
<g>
</g>
<g>
</g>
<g>
</g>
<g>
</g>
<g>
</g>
<g>
</g>
<g>
</g>
<g>
</g>
<g>
</g>
<g>
</g>
<g>
</g>
<g>
</g>
</svg>
